<svg xmlns="http://www.w3.org/2000/svg" xmlns:xlink="http://www.w3.org/1999/xlink" width="500" zoomAndPan="magnify" viewBox="0 0 375 374.999991" height="500" preserveAspectRatio="xMidYMid meet" version="1.0"><defs><g/><clipPath id="cfba4a41d2"><path d="M 48 141.066406 L 113 141.066406 L 113 221.316406 L 48 221.316406 Z M 48 141.066406 " clip-rule="nonzero"/></clipPath></defs><g clip-path="url(#cfba4a41d2)"><path fill="#00bf63" d="M 101.40625 159.632812 L 96.773438 159.632812 L 96.773438 157.722656 C 96.773438 148.558594 89.324219 141.085938 80.136719 141.085938 C 70.953125 141.085938 63.503906 148.539062 63.503906 157.722656 L 63.503906 159.632812 L 58.871094 159.632812 C 52.898438 159.632812 48.050781 164.484375 48.050781 170.457031 L 48.050781 210.820312 C 48.050781 216.792969 52.898438 221.640625 58.871094 221.640625 L 101.40625 221.640625 C 107.378906 221.640625 112.226562 216.792969 112.226562 210.820312 L 112.226562 170.476562 C 112.226562 164.503906 107.378906 159.632812 101.40625 159.632812 Z M 69.4375 157.742188 C 69.4375 151.828125 74.246094 147.019531 80.160156 147.019531 C 86.070312 147.019531 90.878906 151.828125 90.878906 157.742188 L 90.878906 159.652344 L 69.4375 159.652344 Z M 80.136719 207.746094 C 71.503906 207.746094 64.488281 200.730469 64.488281 192.097656 L 69.417969 192.097656 C 69.417969 198.007812 74.226562 202.820312 80.136719 202.820312 C 86.050781 202.820312 90.859375 198.007812 90.859375 192.097656 L 95.789062 192.097656 C 95.808594 200.710938 88.792969 207.746094 80.136719 207.746094 Z M 80.136719 207.746094 " fill-opacity="1" fill-rule="nonzero"/></g><g fill="#030c32" fill-opacity="1"><g transform="translate(126.249987, 207.658031)"><g><path d="M 13.484375 0.609375 C 19.75 0.609375 24.9375 -2.546875 24.9375 -9.078125 C 24.9375 -15.859375 19.140625 -17.28125 14.5625 -18.453125 C 11.328125 -19.234375 8.734375 -19.875 8.734375 -22 C 8.734375 -23.984375 10.84375 -24.890625 12.96875 -24.890625 C 15.421875 -24.890625 17.59375 -23.6875 17.59375 -21.046875 L 24.03125 -21.046875 C 24.03125 -27.09375 20.09375 -30.8125 13.140625 -30.8125 C 6.4375 -30.8125 2.15625 -27.53125 2.15625 -21.734375 C 2.15625 -15.21875 7.6875 -13.875 12.28125 -12.75 C 15.5625 -12.015625 18.328125 -11.359375 18.328125 -8.984375 C 18.328125 -6.734375 15.90625 -5.453125 13.4375 -5.453125 C 10.765625 -5.453125 8.34375 -6.875 8.34375 -9.765625 L 1.734375 -9.765625 C 1.734375 -3.28125 6.53125 0.609375 13.484375 0.609375 Z M 13.484375 0.609375 "/></g></g></g><g fill="#030c32" fill-opacity="1"><g transform="translate(152.996758, 207.658031)"><g><path d="M 16.375 -23.859375 C 13.578125 -23.859375 11.109375 -22.8125 9.328125 -21.140625 L 9.328125 -31.71875 L 3.03125 -31.71875 L 3.03125 0 L 9.328125 0 L 9.328125 -12.234375 C 9.328125 -16.03125 11.40625 -18.328125 14.5625 -18.328125 C 17.375 -18.328125 18.625 -16.59375 18.625 -13.09375 L 18.625 0 L 24.9375 0 L 24.9375 -14.171875 C 24.9375 -20.09375 21.65625 -23.859375 16.375 -23.859375 Z M 16.375 -23.859375 "/></g></g></g><g fill="#030c32" fill-opacity="1"><g transform="translate(180.694136, 207.658031)"><g><path d="M 14.09375 0.6875 C 21.3125 0.6875 26.703125 -4.625 26.703125 -11.671875 C 26.703125 -18.71875 21.3125 -23.984375 14.09375 -23.984375 C 6.875 -23.984375 1.46875 -18.71875 1.46875 -11.671875 C 1.46875 -4.625 6.875 0.6875 14.09375 0.6875 Z M 14.09375 -5.265625 C 10.453125 -5.265625 7.859375 -7.859375 7.859375 -11.671875 C 7.859375 -15.421875 10.453125 -18.0625 14.09375 -18.0625 C 17.71875 -18.0625 20.3125 -15.421875 20.3125 -11.671875 C 20.3125 -7.859375 17.71875 -5.265625 14.09375 -5.265625 Z M 14.09375 -5.265625 "/></g></g></g><g fill="#030c32" fill-opacity="1"><g transform="translate(208.910036, 207.658031)"><g><path d="M 15.734375 -23.984375 C 12.84375 -23.984375 10.25 -22.953125 8.25 -21.171875 L 7.171875 -23.34375 L 3.03125 -23.34375 L 3.03125 8.421875 L 9.328125 8.421875 L 9.328125 -1.25 C 11.109375 0 13.3125 0.734375 15.734375 0.734375 C 22.78125 0.734375 27.96875 -4.578125 27.96875 -11.671875 C 27.96875 -18.71875 22.78125 -23.984375 15.734375 -23.984375 Z M 15.21875 -5.265625 C 11.546875 -5.265625 8.859375 -8 8.859375 -11.671875 C 8.859375 -15.296875 11.546875 -18.0625 15.21875 -18.0625 C 18.890625 -18.0625 21.5625 -15.296875 21.5625 -11.671875 C 21.5625 -8 18.890625 -5.265625 15.21875 -5.265625 Z M 15.21875 -5.265625 "/></g></g></g><g fill="#030c32" fill-opacity="1"><g transform="translate(238.379014, 207.658031)"><g><path d="M 37.515625 -30.25 L 31.671875 -10.15625 L 23.546875 -29.90625 L 21.34375 -29.90625 L 13.390625 -10.109375 L 7.4375 -30.25 L 0.515625 -30.25 L 10.03125 0 L 15.859375 0 L 22.4375 -16.9375 L 29.171875 0 L 35 0 L 44.34375 -30.25 Z M 37.515625 -30.25 "/></g></g></g><g fill="#030c32" fill-opacity="1"><g transform="translate(283.360239, 207.658031)"><g><path d="M 3.03125 -26.453125 L 9.296875 -26.453125 L 9.296875 -32.28125 L 3.03125 -32.28125 Z M 3.03125 0 L 9.328125 0 L 9.328125 -23.34375 L 3.03125 -23.34375 Z M 3.03125 0 "/></g></g></g><g fill="#030c32" fill-opacity="1"><g transform="translate(295.718195, 207.658031)"><g><path d="M 11.28125 0.6875 C 17.203125 0.6875 21.09375 -2.421875 21.09375 -7.171875 C 21.09375 -12.875 16.203125 -13.65625 12.40625 -14.34375 C 9.984375 -14.78125 8 -15.171875 8 -16.71875 C 8 -18.0625 9.15625 -18.9375 11.109375 -18.9375 C 13.3125 -18.9375 14.609375 -18.015625 14.65625 -16.15625 L 20.65625 -16.15625 C 20.609375 -20.828125 16.90625 -23.984375 11.28125 -23.984375 C 5.65625 -23.984375 1.90625 -20.921875 1.90625 -16.515625 C 1.90625 -11.015625 6.65625 -10.03125 10.375 -9.375 C 12.84375 -8.984375 14.875 -8.515625 14.875 -6.921875 C 14.875 -5.359375 13.265625 -4.53125 11.546875 -4.53125 C 9.296875 -4.53125 7.6875 -5.578125 7.65625 -7.65625 L 1.515625 -7.65625 C 1.515625 -2.671875 5.453125 0.6875 11.28125 0.6875 Z M 11.28125 0.6875 "/></g></g></g><g fill="#030c32" fill-opacity="1"><g transform="translate(318.403261, 207.658031)"><g><path d="M 25.671875 -11.71875 C 25.671875 -18.453125 20.75 -23.984375 13.578125 -23.984375 C 6.65625 -23.984375 1.46875 -18.671875 1.46875 -11.671875 C 1.46875 -4.671875 6.703125 0.6875 13.578125 0.6875 C 19.015625 0.6875 23.46875 -2.546875 25.15625 -7.65625 L 18.546875 -7.65625 C 17.59375 -5.96875 15.78125 -4.921875 13.578125 -4.921875 C 10.5 -4.921875 8.421875 -6.703125 7.859375 -9.890625 L 25.546875 -9.890625 C 25.625 -10.5 25.671875 -11.109375 25.671875 -11.71875 Z M 13.578125 -18.578125 C 16.421875 -18.578125 18.453125 -17.03125 19.359375 -14.171875 L 8.03125 -14.171875 C 8.765625 -16.9375 10.765625 -18.578125 13.578125 -18.578125 Z M 13.578125 -18.578125 "/></g></g></g></svg>